<svg width="313" height="279" viewBox="0 0 313 279" fill="none" xmlns="http://www.w3.org/2000/svg">
<circle cx="259.5" cy="53.5" r="53.5" fill="url(#paint0_linear_1_31)"/>
<circle cx="53.5" cy="53.5" r="53.5" fill="url(#paint1_linear_1_31)"/>
<circle cx="155.5" cy="145.5" r="133.5" fill="url(#paint2_linear_1_31)"/>
<ellipse cx="157" cy="224" rx="60" ry="51" fill="#FFE6CE"/>
<circle cx="157.759" cy="216.897" r="20.3103" fill="#7B371A"/>
<ellipse cx="111.034" cy="163.276" rx="17.0345" ry="22.2759" fill="black"/>
<ellipse cx="112.345" cy="164.586" rx="15.7241" ry="20.9655" fill="white"/>
<ellipse cx="112.345" cy="161.966" rx="15.7241" ry="18.3448" fill="black"/>
<circle cx="116.276" cy="151.483" r="5.24138" fill="white"/>
<circle cx="116.276" cy="151.483" r="5.24138" fill="white"/>
<circle cx="103.172" cy="168.517" r="2.62069" fill="white"/>
<circle cx="103.172" cy="168.517" r="2.62069" fill="white"/>
<ellipse cx="203.034" cy="163.276" rx="17.0345" ry="22.2759" fill="black"/>
<ellipse cx="204.345" cy="164.586" rx="15.7241" ry="20.9655" fill="white"/>
<ellipse cx="204.345" cy="161.966" rx="15.7241" ry="18.3448" fill="black"/>
<circle cx="208.276" cy="151.483" r="5.24138" fill="white"/>
<circle cx="208.276" cy="151.483" r="5.24138" fill="white"/>
<circle cx="195.172" cy="168.517" r="2.62069" fill="white"/>
<circle cx="195.172" cy="168.517" r="2.62069" fill="white"/>
<path d="M129.027 246.454C128.423 245.887 127.473 245.917 126.906 246.521C126.339 247.125 126.369 248.074 126.973 248.641L129.027 246.454ZM126.973 248.641C130.153 251.626 134.652 255.22 140.134 256.103C145.773 257.012 152.057 255.005 158.62 247.643L156.38 245.647C150.314 252.452 144.993 253.847 140.611 253.141C136.072 252.41 132.135 249.372 129.027 246.454L126.973 248.641Z" fill="#402216"/>
<path d="M188.12 246.901C188.671 246.283 188.617 245.335 187.998 244.784C187.38 244.232 186.432 244.287 185.88 244.905L188.12 246.901ZM156.473 247.899C159.653 250.884 164.152 254.478 169.634 255.361C175.273 256.27 181.557 254.263 188.12 246.901L185.88 244.905C179.814 251.71 174.493 253.105 170.111 252.399C165.572 251.668 161.635 248.63 158.527 245.712L156.473 247.899Z" fill="#402216"/>
<path d="M157.5 247.016V237" stroke="#402216" stroke-width="3"/>
<defs>
<linearGradient id="paint0_linear_1_31" x1="259.5" y1="0" x2="259.5" y2="107" gradientUnits="userSpaceOnUse">
<stop stop-color="#7B371A"/>
<stop offset="1" stop-color="#692F16"/>
</linearGradient>
<linearGradient id="paint1_linear_1_31" x1="53.5" y1="0" x2="53.5" y2="107" gradientUnits="userSpaceOnUse">
<stop stop-color="#7B371A"/>
<stop offset="1" stop-color="#692F16"/>
</linearGradient>
<linearGradient id="paint2_linear_1_31" x1="155.5" y1="12" x2="155.5" y2="279" gradientUnits="userSpaceOnUse">
<stop stop-color="#7B371A"/>
<stop offset="1" stop-color="#692F16"/>
</linearGradient>
</defs>
</svg>
